<svg xmlns="http://www.w3.org/2000/svg" viewBox="0 0 43 60.405">
  <defs>
    <style>
      .cls-1 {
        fill: rgba(0,0,0,0);
      }

      .cls-2 {
        fill: #247ee2;
      }
    </style>
  </defs>
  <g id="Brand_Full_logo_Copy_2" data-name="Brand / Full logo Copy 2" transform="translate(0)">
    <rect id="Brand_Full_logo_Copy_2_background" data-name="Brand / Full logo Copy 2 background" class="cls-1" width="42.925" height="60.405" transform="translate(0)"/>
    <path id="_" data-name="ðŸ–" class="cls-2" d="M42.039,59.877a.98.98,0,0,1-.39-.082L.572,41.548a.185.185,0,0,1-.032-.02.208.208,0,0,0-.03-.019.181.181,0,0,0-.032-.015.17.17,0,0,1-.035-.017.219.219,0,0,1-.034-.028l-.024-.021A.964.964,0,0,1,.3,41.362a1.06,1.06,0,0,1-.1-.119l-.019-.025a.545.545,0,0,1-.039-.056.864.864,0,0,1-.072-.156l-.01-.024a.468.468,0,0,1-.022-.056A1.021,1.021,0,0,1,0,40.666V19.839a.967.967,0,0,1,.048-.284l.012-.034.014-.038a1.009,1.009,0,0,1,.111-.2L.2,19.262a.176.176,0,0,1,.017-.025.972.972,0,0,1,.176-.172L.4,19.056l.013-.007a.345.345,0,0,1,.032-.018l.027-.015a.944.944,0,0,1,.214-.094.08.08,0,0,0,.019-.008A.068.068,0,0,1,.729,18.9L13.913,15.6a.109.109,0,0,0,0-.211L.721,11.98A.963.963,0,0,1,0,11.048V.963A.962.962,0,0,1,1.158.02L42.235,8.592a1.019,1.019,0,0,1,.271.109c.023.013.044.025.064.039l.032.019.029.017a1.01,1.01,0,0,1,.15.15.93.93,0,0,1,.145.252.63.63,0,0,1,.023.066A.943.943,0,0,1,43,9.536V21.652a.943.943,0,0,1-.036.25c-.005.019-.012.037-.019.055l-.007.02a1.123,1.123,0,0,1-.072.155c-.014.026-.032.052-.047.074a.838.838,0,0,1-.109.126.718.718,0,0,1-.059.06l-.01.009-.014.013a.17.17,0,0,1-.039.022.217.217,0,0,0-.029.015l-.036.025a.574.574,0,0,1-.082.052l-11.35,5.254a.108.108,0,0,0,.015.2l11.211,3.4a.958.958,0,0,1,.683.921V58.914a.962.962,0,0,1-.961.963ZM28.353,29.251a2,2,0,0,0-.832.183l-23.773,11a.228.228,0,0,0,0,.415L40.758,57.292a.227.227,0,0,0,.318-.208V33.193a.224.224,0,0,0-.161-.217l-11.987-3.64A1.939,1.939,0,0,0,28.353,29.251ZM2.15,21.217a.227.227,0,0,0-.226.228V38.805a.227.227,0,0,0,.069.163.231.231,0,0,0,.158.064.238.238,0,0,0,.095-.021L25.177,28.4a.107.107,0,0,0,.063-.107.109.109,0,0,0-.077-.1L2.216,21.227A.256.256,0,0,0,2.15,21.217Zm16.075-4.653a2.024,2.024,0,0,0-.483.06L4.814,19.866a.067.067,0,0,0-.052.066A.068.068,0,0,0,4.811,20L27.34,26.84a1.939,1.939,0,0,0,.576.086,1.97,1.97,0,0,0,.832-.183l10.261-4.749a.07.07,0,0,0,.04-.071A.068.068,0,0,0,39,21.861L18.718,16.626A1.981,1.981,0,0,0,18.225,16.564Zm22.57-5.714a.3.3,0,0,0-.071.009L22.554,15.416a.11.11,0,0,0,0,.212l18.167,4.69a.3.3,0,0,0,.071.009.285.285,0,0,0,.284-.286V11.135A.284.284,0,0,0,40.794,10.85ZM2.15,2.2a.227.227,0,0,0-.226.227v7.7a.229.229,0,0,0,.171.22l15.655,4.04a1.994,1.994,0,0,0,.5.064,2.036,2.036,0,0,0,.48-.059L37.591,9.658a.034.034,0,0,0,.026-.034.032.032,0,0,0-.028-.032L2.2,2.2A.222.222,0,0,0,2.15,2.2Z" transform="translate(0 0)"/>
  </g>
</svg>
